<svg xmlns="http://www.w3.org/2000/svg" width="1120" height="400" viewBox="0 0 1120 400" role="img" aria-label="How efaimo works: it weighs and checks what your agent loads before it reaches the context window.">
  <defs>
    <marker id="arrow" markerWidth="9" markerHeight="9" refX="6.5" refY="3" orient="auto">
      <path d="M0,0 L6.5,3 L0,6 Z" fill="#4a5364"/>
    </marker>
    <style>
      .s { font-family: ui-sans-serif, system-ui, -apple-system, "Segoe UI", Roboto, sans-serif; }
      .m { font-family: ui-monospace, SFMono-Regular, Menlo, Consolas, monospace; }
    </style>
  </defs>

  <rect x="1" y="1" width="1118" height="398" rx="16" fill="#08090D" stroke="#191D26" stroke-width="1"/>

  <!-- sources -->
  <rect x="60" y="96" width="264" height="86" rx="10" fill="#0C0E13" stroke="#232834" stroke-width="1"/>
  <text x="84" y="132" class="s" font-size="21" fill="#E9EDF3">MCP servers</text>
  <text x="84" y="160" class="m" font-size="13" fill="#525a67">github · postgres · fetch</text>

  <rect x="60" y="216" width="264" height="86" rx="10" fill="#0C0E13" stroke="#232834" stroke-width="1"/>
  <text x="84" y="252" class="s" font-size="21" fill="#E9EDF3">Agent Skills</text>
  <text x="84" y="280" class="m" font-size="13" fill="#525a67">SKILL.md · triggers · refs</text>

  <!-- arrows into efaimo -->
  <line x1="326" y1="139" x2="436" y2="184" stroke="#3a4150" stroke-width="1.5" marker-end="url(#arrow)"/>
  <line x1="326" y1="259" x2="436" y2="216" stroke="#3a4150" stroke-width="1.5" marker-end="url(#arrow)"/>

  <!-- efaimo node -->
  <rect x="444" y="118" width="236" height="164" rx="12" fill="#0C0E13" stroke="#333b49" stroke-width="1"/>
  <rect x="444" y="118" width="3.5" height="164" rx="1.75" fill="#57E7D6"/>
  <svg x="470" y="140" width="30" height="30" viewBox="0 0 48 48">
    <path fill="#FFFFFF" d="M14.972 4.625Q16.934 3.108 19.342 3.696L28.028 5.816Q30.437 6.403 29.921 8.828L23.061 41.104Q22.545 43.53 20.12 44.045L18.734 44.34Q16.308 44.855 14.393 43.281L3.872 34.629Q1.956 33.054 1.993 30.575L2.197 16.954Q2.234 14.475 4.195 12.958ZM36.609 8.808Q36.814 7.841 37.773 8.075L37.773 8.075Q38.733 8.31 39.148 9.206L45.502 22.92Q46.545 25.17 45.434 27.388L39.342 39.572Q38.232 41.789 35.808 42.305L31.615 43.195Q29.19 43.711 29.705 41.286Z"/>
  </svg>
  <text x="510" y="163" class="s" font-size="24" font-weight="600" fill="#E9EDF3">efaimo</text>
  <text x="472" y="196" class="s" font-size="15" fill="#79828F">weigh · check</text>
  <line x1="472" y1="214" x2="652" y2="214" stroke="#191D26" stroke-width="1"/>
  <text x="472" y="249" class="m" font-size="15" fill="#79828F"><tspan fill="#57E7D6">1,120</tspan> tokens<tspan fill="#525a67"> · </tspan>grade <tspan fill="#57E7D6">B</tspan></text>

  <!-- arrow to context -->
  <line x1="684" y1="200" x2="792" y2="200" stroke="#3a4150" stroke-width="1.5" marker-end="url(#arrow)"/>

  <!-- context window -->
  <rect x="800" y="118" width="260" height="164" rx="12" fill="#0C0E13" stroke="#232834" stroke-width="1"/>
  <text x="824" y="154" class="s" font-size="21" fill="#E9EDF3">your context</text>
  <text x="824" y="180" class="m" font-size="13" fill="#525a67">200k window</text>
  <rect x="824" y="210" width="212" height="12" rx="6" fill="#191D26"/>
  <rect x="824" y="210" width="18" height="12" rx="6" fill="#57E7D6"/>
  <text x="824" y="252" class="m" font-size="13" fill="#525a67">tool definitions: ~0.6% before any work</text>

  <!-- caption -->
  <text x="560" y="352" text-anchor="middle" class="s" font-size="15.5" fill="#79828F">efaimo weighs the token cost and checks the quality of everything your agent loads,</text>
  <text x="560" y="374" text-anchor="middle" class="s" font-size="15.5" fill="#79828F">before it reaches the context window.</text>
</svg>
