<svg xmlns="http://www.w3.org/2000/svg" width="128" height="128" viewBox="0 0 128 128" role="img" aria-label="efaimo">
  <rect width="128" height="128" rx="28" fill="#0C0E13"/>
  <svg x="28" y="28" width="72" height="72" viewBox="0 0 48 48">
    <path fill="#FFFFFF" d="M14.972 4.625Q16.934 3.108 19.342 3.696L28.028 5.816Q30.437 6.403 29.921 8.828L23.061 41.104Q22.545 43.53 20.12 44.045L18.734 44.34Q16.308 44.855 14.393 43.281L3.872 34.629Q1.956 33.054 1.993 30.575L2.197 16.954Q2.234 14.475 4.195 12.958ZM36.609 8.808Q36.814 7.841 37.773 8.075L37.773 8.075Q38.733 8.31 39.148 9.206L45.502 22.92Q46.545 25.17 45.434 27.388L39.342 39.572Q38.232 41.789 35.808 42.305L31.615 43.195Q29.19 43.711 29.705 41.286Z"/>
  </svg>
</svg>
